<?xml version="1.0" standalone="no"?>
<svg xmlns:xlink="http://www.w3.org/1999/xlink" id="wave" style="transform:rotate(0deg); transition: 0.3s" viewBox="0 0 1440 370" version="1.1" xmlns="http://www.w3.org/2000/svg"><defs><linearGradient id="sw-gradient-0" x1="0" x2="0" y1="1" y2="0"><stop stop-color="rgba(0, 199.446, 17.681, 1)" offset="0%"/><stop stop-color="rgba(255, 255, 255, 1)" offset="100%"/></linearGradient></defs><path style="transform:translate(0, 0px); opacity:1" fill="url(#sw-gradient-0)" d="M0,185L48,172.7C96,160,192,136,288,141.8C384,148,480,185,576,222C672,259,768,296,864,308.3C960,321,1056,308,1152,277.5C1248,247,1344,197,1440,172.7C1536,148,1632,148,1728,129.5C1824,111,1920,74,2016,61.7C2112,49,2208,62,2304,104.8C2400,148,2496,222,2592,228.2C2688,234,2784,173,2880,166.5C2976,160,3072,210,3168,246.7C3264,284,3360,308,3456,283.7C3552,259,3648,185,3744,148C3840,111,3936,111,4032,92.5C4128,74,4224,37,4320,74C4416,111,4512,222,4608,240.5C4704,259,4800,185,4896,178.8C4992,173,5088,234,5184,222C5280,210,5376,123,5472,74C5568,25,5664,12,5760,12.3C5856,12,5952,25,6048,80.2C6144,136,6240,234,6336,259C6432,284,6528,234,6624,234.3C6720,234,6816,284,6864,308.3L6912,333L6912,370L6864,370C6816,370,6720,370,6624,370C6528,370,6432,370,6336,370C6240,370,6144,370,6048,370C5952,370,5856,370,5760,370C5664,370,5568,370,5472,370C5376,370,5280,370,5184,370C5088,370,4992,370,4896,370C4800,370,4704,370,4608,370C4512,370,4416,370,4320,370C4224,370,4128,370,4032,370C3936,370,3840,370,3744,370C3648,370,3552,370,3456,370C3360,370,3264,370,3168,370C3072,370,2976,370,2880,370C2784,370,2688,370,2592,370C2496,370,2400,370,2304,370C2208,370,2112,370,2016,370C1920,370,1824,370,1728,370C1632,370,1536,370,1440,370C1344,370,1248,370,1152,370C1056,370,960,370,864,370C768,370,672,370,576,370C480,370,384,370,288,370C192,370,96,370,48,370L0,370Z"/><defs><linearGradient id="sw-gradient-1" x1="0" x2="0" y1="1" y2="0"><stop stop-color="rgba(6.041, 240.429, 26.82, 1)" offset="0%"/><stop stop-color="rgba(255, 255, 255, 1)" offset="100%"/></linearGradient></defs><path style="transform:translate(0, 50px); opacity:0.9" fill="url(#sw-gradient-1)" d="M0,0L48,0C96,0,192,0,288,24.7C384,49,480,99,576,98.7C672,99,768,49,864,80.2C960,111,1056,222,1152,222C1248,222,1344,111,1440,74C1536,37,1632,74,1728,80.2C1824,86,1920,62,2016,55.5C2112,49,2208,62,2304,61.7C2400,62,2496,49,2592,86.3C2688,123,2784,210,2880,246.7C2976,284,3072,271,3168,277.5C3264,284,3360,308,3456,271.3C3552,234,3648,136,3744,80.2C3840,25,3936,12,4032,12.3C4128,12,4224,25,4320,24.7C4416,25,4512,12,4608,18.5C4704,25,4800,49,4896,86.3C4992,123,5088,173,5184,209.7C5280,247,5376,271,5472,246.7C5568,222,5664,148,5760,123.3C5856,99,5952,123,6048,160.3C6144,197,6240,247,6336,265.2C6432,284,6528,271,6624,234.3C6720,197,6816,136,6864,104.8L6912,74L6912,370L6864,370C6816,370,6720,370,6624,370C6528,370,6432,370,6336,370C6240,370,6144,370,6048,370C5952,370,5856,370,5760,370C5664,370,5568,370,5472,370C5376,370,5280,370,5184,370C5088,370,4992,370,4896,370C4800,370,4704,370,4608,370C4512,370,4416,370,4320,370C4224,370,4128,370,4032,370C3936,370,3840,370,3744,370C3648,370,3552,370,3456,370C3360,370,3264,370,3168,370C3072,370,2976,370,2880,370C2784,370,2688,370,2592,370C2496,370,2400,370,2304,370C2208,370,2112,370,2016,370C1920,370,1824,370,1728,370C1632,370,1536,370,1440,370C1344,370,1248,370,1152,370C1056,370,960,370,864,370C768,370,672,370,576,370C480,370,384,370,288,370C192,370,96,370,48,370L0,370Z"/></svg>